<svg xmlns="http://www.w3.org/2000/svg" viewBox="243.316 -61.437 52.800 52.800">
<path fill="#b8c2d0" d="M251.575,-45.213 C251.575,-45.213 261.638,-46.346 261.638,-46.346 C261.638,-46.346 260.107,-39.827 260.107,-39.827 C260.107,-39.827 248.145,-38.806 248.145,-38.806 C248.145,-38.806 251.575,-45.213 251.575,-45.213 Z"/>
<path fill="#b8c2d0" d="M248.428,-37.956 C248.428,-37.956 260.220,-38.976 260.220,-38.976 C260.220,-38.976 273.883,-17.660 273.883,-17.660 C273.883,-17.660 248.428,-37.956 248.428,-37.956 Z"/>
<path fill="#b8c2d0" d="M252.000,-46.006 C252.000,-46.006 260.334,-50.655 260.334,-50.655 C260.334,-50.655 275.357,-53.830 275.357,-53.830 C275.357,-53.830 284.882,-52.809 284.882,-52.809 C284.882,-52.809 275.357,-49.918 275.357,-49.918 C275.357,-49.918 261.978,-47.083 261.978,-47.083 C261.978,-47.083 252.000,-46.006 252.000,-46.006 Z"/>
<path fill="#6b7a90" d="M262.375,-46.460 C262.375,-46.460 275.244,-49.181 275.244,-49.181 C275.244,-49.181 279.326,-43.739 279.326,-43.739 C279.326,-43.739 260.957,-39.883 260.957,-39.883 C260.957,-39.883 262.375,-46.460 262.375,-46.460 Z"/>
<path fill="#6b7a90" d="M261.071,-39.090 C261.071,-39.090 279.666,-42.945 279.666,-42.945 C279.666,-42.945 275.471,-16.243 275.471,-16.243 C275.471,-16.243 261.071,-39.090 261.071,-39.090 Z"/>
<path fill="#8f9cb0" d="M275.981,-49.408 C275.981,-49.408 285.846,-52.356 285.846,-52.356 C285.846,-52.356 291.288,-48.047 291.288,-48.047 C291.288,-48.047 280.063,-44.022 280.063,-44.022 C280.063,-44.022 275.981,-49.408 275.981,-49.408 Z"/>
<path fill="#8f9cb0" d="M280.488,-43.172 C280.488,-43.172 291.231,-47.197 291.231,-47.197 C291.231,-47.197 276.378,-18.113 276.378,-18.113 C276.378,-18.113 280.488,-43.172 280.488,-43.172 Z"/>
</svg>
